REM MD5 17fbec4823e519908cbaa969ce477237
FILE "Demo One (Germany) (SCES-00064).bin" BINARY
  TRACK 01 MODE2/2352
    INDEX 01 00:00:00
  TRACK 02 AUDIO
    INDEX 00 16:56:43
    INDEX 01 16:58:43
  TRACK 03 AUDIO
    INDEX 00 18:19:21
    INDEX 01 18:21:21
  TRACK 04 AUDIO
    INDEX 00 22:54:63
    INDEX 01 22:56:63
  TRACK 05 AUDIO
    INDEX 00 28:18:57
    INDEX 01 28:20:57
  TRACK 06 AUDIO
    INDEX 00 29:13:00
    INDEX 01 29:15:00
REM LEADOUT 30:59:61
